<svg width="91" height="24" viewBox="0 0 91 24" fill="none" xmlns="http://www.w3.org/2000/svg">
<path d="M0.312 0.599998H5.528C7.34133 0.599998 8.664 1.02667 9.496 1.88C10.328 2.712 10.744 4.00267 10.744 5.752V7.128C10.744 9.45333 9.976 10.9253 8.44 11.544V11.608C9.29333 11.864 9.89067 12.3867 10.232 13.176C10.5947 13.9653 10.776 15.0213 10.776 16.344V20.28C10.776 20.92 10.7973 21.4427 10.84 21.848C10.8827 22.232 10.9893 22.616 11.16 23H7.576C7.448 22.6373 7.36267 22.296 7.32 21.976C7.27733 21.656 7.256 21.08 7.256 20.248V16.152C7.256 15.128 7.08533 14.4133 6.744 14.008C6.424 13.6027 5.85867 13.4 5.048 13.4H3.832V23H0.312V0.599998ZM5.112 10.2C5.816 10.2 6.33867 10.0187 6.68 9.656C7.04267 9.29333 7.224 8.68533 7.224 7.832V6.104C7.224 5.29333 7.07467 4.70667 6.776 4.344C6.49867 3.98133 6.05067 3.8 5.432 3.8H3.832V10.2H5.112ZM13.2183 0.599998H22.8183V3.8H16.7383V9.72H21.5703V12.92H16.7383V19.8H22.8183V23H13.2183V0.599998ZM29.8033 23.32C28.1179 23.32 26.8273 22.84 25.9313 21.88C25.0566 20.92 24.6193 19.5653 24.6193 17.816V5.784C24.6193 4.03467 25.0566 2.68 25.9313 1.72C26.8273 0.759999 28.1179 0.279999 29.8033 0.279999C31.4886 0.279999 32.7686 0.759999 33.6433 1.72C34.5393 2.68 34.9873 4.03467 34.9873 5.784V8.152H31.6593V5.56C31.6593 4.17333 31.0726 3.48 29.8993 3.48C28.7259 3.48 28.1393 4.17333 28.1393 5.56V18.072C28.1393 19.4373 28.7259 20.12 29.8993 20.12C31.0726 20.12 31.6593 19.4373 31.6593 18.072V14.648H34.9873V17.816C34.9873 19.5653 34.5393 20.92 33.6433 21.88C32.7686 22.84 31.4886 23.32 29.8033 23.32ZM37.0933 0.599998H40.6133V9.72H44.3893V0.599998H47.9093V23H44.3893V12.92H40.6133V23H37.0933V0.599998ZM50.5308 0.599998H59.8428V3.8H54.0508V10.04H58.5948V13.24H54.0508V23H50.5308V0.599998ZM61.5308 0.599998H65.0508V19.8H70.8428V23H61.5308V0.599998ZM72.5308 0.599998H76.0508V23H72.5308V0.599998ZM81.791 11.544L77.919 0.599998H81.631L83.999 7.832H84.063L86.495 0.599998H89.823L85.951 11.544L90.015 23H86.303L83.743 15.192H83.679L81.055 23H77.727L81.791 11.544Z" fill="#E50814"/>
</svg>
